<svg xmlns="http://www.w3.org/2000/svg" viewBox="0 0 64 64" width="64" height="64">
  <defs>
    <linearGradient id="bg" x1="6" y1="0" x2="58" y2="64" gradientUnits="userSpaceOnUse">
      <stop offset="0%" stop-color="#c084fc"/>
      <stop offset="55%" stop-color="#8b5cf6"/>
      <stop offset="100%" stop-color="#5b21b6"/>
    </linearGradient>
    <linearGradient id="shine" x1="32" y1="2" x2="32" y2="30" gradientUnits="userSpaceOnUse">
      <stop offset="0%" stop-color="#ffffff" stop-opacity="0.32"/>
      <stop offset="100%" stop-color="#ffffff" stop-opacity="0"/>
    </linearGradient>
    <radialGradient id="halo" cx="32" cy="40" r="26" gradientUnits="userSpaceOnUse">
      <stop offset="0%" stop-color="#ffffff" stop-opacity="0.18"/>
      <stop offset="100%" stop-color="#ffffff" stop-opacity="0"/>
    </radialGradient>
    <linearGradient id="spark" x1="46" y1="9" x2="54" y2="17" gradientUnits="userSpaceOnUse">
      <stop offset="0%" stop-color="#fde68a"/>
      <stop offset="100%" stop-color="#f59e0b"/>
    </linearGradient>
    <clipPath id="tile">
      <rect width="64" height="64" rx="16"/>
    </clipPath>
  </defs>

  <g clip-path="url(#tile)">
    <rect width="64" height="64" fill="url(#bg)"/>
    <rect width="64" height="64" fill="url(#halo)"/>
    <rect width="64" height="64" fill="url(#shine)"/>

    <g fill="#ffffff" opacity="0.55">
      <circle cx="14" cy="28" r="5.5"/>
      <path d="M3 50 C 3 40, 25 40, 25 50 L 25 64 L 3 64 Z"/>
    </g>
    <g fill="#ffffff" opacity="0.55">
      <circle cx="50" cy="28" r="5.5"/>
      <path d="M39 50 C 39 40, 61 40, 61 50 L 61 64 L 39 64 Z"/>
    </g>

    <circle cx="32" cy="22" r="9" fill="#ffffff"/>
    <path d="M14 58 C 14 44, 50 44, 50 58 L 50 64 L 14 64 Z" fill="#ffffff"/>

    <g>
      <circle cx="50" cy="13" r="3.5" fill="url(#spark)"/>
      <circle cx="49" cy="12" r="1.3" fill="#fffbeb"/>
    </g>
  </g>

  <rect x="0.5" y="0.5" width="63" height="63" rx="15.5" fill="none" stroke="#ffffff" stroke-opacity="0.18"/>
</svg>
